<?xml version="1.0" encoding="UTF-8"?>
<svg width="30px" height="30px" viewBox="0 0 30 30" version="1.1" xmlns="http://www.w3.org/2000/svg" xmlns:xlink="http://www.w3.org/1999/xlink">
    <!-- Generator: Sketch 52 (66869) - http://www.bohemiancoding.com/sketch -->
    <title>Path</title>
    <desc>Created with Sketch.</desc>
    <g id="VSiconifyer" stroke="none" stroke-width="1" fill="none" fill-rule="evenodd">
        <g id="Desktop-HD" transform="translate(-734.000000, -496.000000)" fill="#FFF5">
            <path d="M749.02752,496.000024 C753.035726,496.007222 756.674919,497.586696 759.361734,500.154356 L761.521915,497.994176 C762.436431,497.079721 764,497.727382 764,499.020647 L764,507.129048 C764,507.930761 763.350101,508.580659 762.548387,508.580659 L754.43998,508.580659 C753.146714,508.580659 752.499052,507.017092 753.413508,506.102577 L755.93871,503.577377 C754.071935,501.829455 751.656391,500.86123 749.090121,500.839093 C743.501532,500.790827 738.790746,505.313505 738.839073,511.087593 C738.884919,516.565068 743.325645,521.161294 749,521.161294 C751.48752,521.161294 753.838528,520.273513 755.69127,518.647829 C755.978145,518.396155 756.411391,518.411458 756.68127,518.681276 L759.080181,521.080185 C759.374859,521.374863 759.360282,521.855286 759.051028,522.1346 C756.39125,524.537078 752.866492,526 749,526 C740.715766,526 734.00006,519.2843 734,511.000133 C733.99994,502.725402 740.752782,495.985206 749.02752,496.000024 Z" id="Path"></path>
        </g>
    </g>
</svg>