<?xml version="1.0" encoding="UTF-8"?>
<svg width="30px" height="30px" viewBox="0 0 30 30" version="1.1" xmlns="http://www.w3.org/2000/svg" xmlns:xlink="http://www.w3.org/1999/xlink">
    <!-- Generator: Sketch 52 (66869) - http://www.bohemiancoding.com/sketch -->
    <title>Shape</title>
    <desc>Created with Sketch.</desc>
    <g id="VSiconifyer" stroke="none" stroke-width="1" fill="none" fill-rule="evenodd">
        <g id="Desktop-HD" transform="translate(-776.000000, -496.000000)" fill="#FFF5" fill-rule="nonzero">
            <path d="M806,511 C806,519.28629 799.28629,526 791,526 C782.71371,526 776,519.28629 776,511 C776,502.71371 782.71371,496 791,496 C799.28629,496 806,502.71371 806,511 Z M787.646066,502.164102 L787.646066,510.922463 L782.240389,510.922463 C781.424581,510.922463 781.012865,511.904004 781.592317,512.470277 L790.352717,521.100283 C790.711062,521.455148 791.28289,521.455148 791.641235,521.100283 L800.401634,512.470277 C800.981086,511.896453 800.569371,510.922463 799.753563,510.922463 L794.35551,510.922463 L794.35551,502.164102 C794.35551,501.665781 793.943794,501.258065 793.440586,501.258065 L788.56099,501.258065 C788.057782,501.258065 787.646066,501.665781 787.646066,502.164102 Z" id="Shape"></path>
        </g>
    </g>
</svg>